<mxfile host="app.diagrams.net" modified="2023-11-13T05:37:07.948Z" agent="Mozilla/5.0 (Macintosh; Intel Mac OS X 10_15_7) AppleWebKit/537.36 (KHTML, like Gecko) Chrome/115.0.0.0 Safari/537.36" etag="fr9nEXeQPPefJVmh10Dj" version="22.1.0" type="github">
  <diagram name="第 1 页" id="yJQVINWv8Zk17fUq3llq">
    <mxGraphModel dx="954" dy="1712" grid="1" gridSize="10" guides="1" tooltips="1" connect="1" arrows="1" fold="1" page="1" pageScale="1" pageWidth="827" pageHeight="1169" math="0" shadow="0">
      <root>
        <mxCell id="0" />
        <mxCell id="1" parent="0" />
        <mxCell id="hX1Yc7hWCkJh4GDTsUoK-35" value="" style="rounded=0;whiteSpace=wrap;html=1;strokeColor=none;labelBackgroundColor=none;fillColor=#dae8fc;" vertex="1" parent="1">
          <mxGeometry x="159" y="-1" width="90" height="921" as="geometry" />
        </mxCell>
        <mxCell id="hX1Yc7hWCkJh4GDTsUoK-1" value="" style="rounded=0;whiteSpace=wrap;html=1;labelBackgroundColor=none;" vertex="1" parent="1">
          <mxGeometry x="40" y="240" width="40" height="40" as="geometry" />
        </mxCell>
        <mxCell id="hX1Yc7hWCkJh4GDTsUoK-2" value="" style="endArrow=classic;html=1;rounded=0;labelBackgroundColor=none;fontColor=default;" edge="1" parent="1">
          <mxGeometry width="50" height="50" relative="1" as="geometry">
            <mxPoint x="80" y="260" as="sourcePoint" />
            <mxPoint x="120" y="260" as="targetPoint" />
          </mxGeometry>
        </mxCell>
        <mxCell id="hX1Yc7hWCkJh4GDTsUoK-6" value="" style="group;labelBackgroundColor=none;" vertex="1" connectable="0" parent="1">
          <mxGeometry x="110" y="200" width="60" height="80" as="geometry" />
        </mxCell>
        <mxCell id="hX1Yc7hWCkJh4GDTsUoK-3" value="1" style="ellipse;whiteSpace=wrap;html=1;aspect=fixed;labelBackgroundColor=none;" vertex="1" parent="hX1Yc7hWCkJh4GDTsUoK-6">
          <mxGeometry x="10" y="40" width="40" height="40" as="geometry" />
        </mxCell>
        <mxCell id="hX1Yc7hWCkJh4GDTsUoK-5" value="更新设备&lt;br&gt;-200" style="text;html=1;strokeColor=none;fillColor=none;align=center;verticalAlign=middle;whiteSpace=wrap;rounded=0;labelBackgroundColor=none;" vertex="1" parent="hX1Yc7hWCkJh4GDTsUoK-6">
          <mxGeometry width="60" height="30" as="geometry" />
        </mxCell>
        <mxCell id="hX1Yc7hWCkJh4GDTsUoK-18" value="" style="endArrow=classic;html=1;rounded=0;labelBackgroundColor=none;fontColor=default;entryX=0;entryY=0.5;entryDx=0;entryDy=0;" edge="1" parent="hX1Yc7hWCkJh4GDTsUoK-6" target="hX1Yc7hWCkJh4GDTsUoK-11">
          <mxGeometry width="50" height="50" relative="1" as="geometry">
            <mxPoint x="50" y="60" as="sourcePoint" />
            <mxPoint x="100" y="130" as="targetPoint" />
          </mxGeometry>
        </mxCell>
        <mxCell id="hX1Yc7hWCkJh4GDTsUoK-7" value="" style="group;labelBackgroundColor=none;" vertex="1" connectable="0" parent="1">
          <mxGeometry x="200" y="120" width="60" height="80" as="geometry" />
        </mxCell>
        <mxCell id="hX1Yc7hWCkJh4GDTsUoK-8" value="2" style="ellipse;whiteSpace=wrap;html=1;aspect=fixed;labelBackgroundColor=none;" vertex="1" parent="hX1Yc7hWCkJh4GDTsUoK-7">
          <mxGeometry x="10" y="40" width="40" height="40" as="geometry" />
        </mxCell>
        <mxCell id="hX1Yc7hWCkJh4GDTsUoK-9" value="扩建&lt;br&gt;-100" style="text;html=1;strokeColor=none;fillColor=none;align=center;verticalAlign=middle;whiteSpace=wrap;rounded=0;labelBackgroundColor=none;" vertex="1" parent="hX1Yc7hWCkJh4GDTsUoK-7">
          <mxGeometry width="60" height="30" as="geometry" />
        </mxCell>
        <mxCell id="hX1Yc7hWCkJh4GDTsUoK-15" value="" style="endArrow=classic;html=1;rounded=0;entryX=0.025;entryY=0.675;entryDx=0;entryDy=0;entryPerimeter=0;labelBackgroundColor=none;fontColor=default;" edge="1" parent="1" target="hX1Yc7hWCkJh4GDTsUoK-8">
          <mxGeometry width="50" height="50" relative="1" as="geometry">
            <mxPoint x="160" y="260" as="sourcePoint" />
            <mxPoint x="210" y="210" as="targetPoint" />
          </mxGeometry>
        </mxCell>
        <mxCell id="hX1Yc7hWCkJh4GDTsUoK-20" value="" style="endArrow=classic;html=1;rounded=0;labelBackgroundColor=none;fontColor=default;" edge="1" parent="1">
          <mxGeometry width="50" height="50" relative="1" as="geometry">
            <mxPoint x="250" y="180" as="sourcePoint" />
            <mxPoint x="360" y="120" as="targetPoint" />
          </mxGeometry>
        </mxCell>
        <mxCell id="hX1Yc7hWCkJh4GDTsUoK-22" value="好 0.7" style="edgeLabel;html=1;align=center;verticalAlign=middle;resizable=0;points=[];labelBackgroundColor=none;" vertex="1" connectable="0" parent="hX1Yc7hWCkJh4GDTsUoK-20">
          <mxGeometry x="-0.0777" y="2" relative="1" as="geometry">
            <mxPoint y="1" as="offset" />
          </mxGeometry>
        </mxCell>
        <mxCell id="hX1Yc7hWCkJh4GDTsUoK-21" value="" style="endArrow=classic;html=1;rounded=0;labelBackgroundColor=none;fontColor=default;" edge="1" parent="1">
          <mxGeometry width="50" height="50" relative="1" as="geometry">
            <mxPoint x="250" y="180" as="sourcePoint" />
            <mxPoint x="360" y="240" as="targetPoint" />
          </mxGeometry>
        </mxCell>
        <mxCell id="hX1Yc7hWCkJh4GDTsUoK-23" value="差 0.3" style="edgeLabel;html=1;align=center;verticalAlign=middle;resizable=0;points=[];labelBackgroundColor=none;" vertex="1" connectable="0" parent="hX1Yc7hWCkJh4GDTsUoK-21">
          <mxGeometry x="-0.0803" y="3" relative="1" as="geometry">
            <mxPoint as="offset" />
          </mxGeometry>
        </mxCell>
        <mxCell id="hX1Yc7hWCkJh4GDTsUoK-24" value="" style="endArrow=classic;html=1;rounded=0;labelBackgroundColor=none;fontColor=default;" edge="1" parent="1">
          <mxGeometry width="50" height="50" relative="1" as="geometry">
            <mxPoint x="440" y="120" as="sourcePoint" />
            <mxPoint x="550" y="60" as="targetPoint" />
          </mxGeometry>
        </mxCell>
        <mxCell id="hX1Yc7hWCkJh4GDTsUoK-25" value="好 0.7" style="edgeLabel;html=1;align=center;verticalAlign=middle;resizable=0;points=[];labelBackgroundColor=none;" vertex="1" connectable="0" parent="hX1Yc7hWCkJh4GDTsUoK-24">
          <mxGeometry x="-0.0777" y="2" relative="1" as="geometry">
            <mxPoint y="1" as="offset" />
          </mxGeometry>
        </mxCell>
        <mxCell id="hX1Yc7hWCkJh4GDTsUoK-26" value="" style="endArrow=classic;html=1;rounded=0;labelBackgroundColor=none;fontColor=default;" edge="1" parent="1">
          <mxGeometry width="50" height="50" relative="1" as="geometry">
            <mxPoint x="440" y="120" as="sourcePoint" />
            <mxPoint x="550" y="180" as="targetPoint" />
          </mxGeometry>
        </mxCell>
        <mxCell id="hX1Yc7hWCkJh4GDTsUoK-27" value="差 0.3" style="edgeLabel;html=1;align=center;verticalAlign=middle;resizable=0;points=[];labelBackgroundColor=none;" vertex="1" connectable="0" parent="hX1Yc7hWCkJh4GDTsUoK-26">
          <mxGeometry x="-0.0803" y="3" relative="1" as="geometry">
            <mxPoint as="offset" />
          </mxGeometry>
        </mxCell>
        <mxCell id="hX1Yc7hWCkJh4GDTsUoK-32" value="100*3" style="text;html=1;strokeColor=none;fillColor=none;align=center;verticalAlign=middle;whiteSpace=wrap;rounded=0;labelBackgroundColor=none;" vertex="1" parent="1">
          <mxGeometry x="370" y="100" width="60" height="30" as="geometry" />
        </mxCell>
        <mxCell id="hX1Yc7hWCkJh4GDTsUoK-33" value="120*5" style="text;html=1;strokeColor=none;fillColor=none;align=center;verticalAlign=middle;whiteSpace=wrap;rounded=0;labelBackgroundColor=none;" vertex="1" parent="1">
          <mxGeometry x="560" y="40" width="60" height="30" as="geometry" />
        </mxCell>
        <mxCell id="hX1Yc7hWCkJh4GDTsUoK-34" value="30*5" style="text;html=1;strokeColor=none;fillColor=none;align=center;verticalAlign=middle;whiteSpace=wrap;rounded=0;labelBackgroundColor=none;" vertex="1" parent="1">
          <mxGeometry x="560" y="160" width="60" height="30" as="geometry" />
        </mxCell>
        <mxCell id="hX1Yc7hWCkJh4GDTsUoK-37" value="是否立即扩建" style="text;html=1;strokeColor=none;fillColor=none;align=center;verticalAlign=middle;whiteSpace=wrap;rounded=0;" vertex="1" parent="1">
          <mxGeometry x="170" y="950" width="60" height="30" as="geometry" />
        </mxCell>
        <mxCell id="hX1Yc7hWCkJh4GDTsUoK-38" value="" style="endArrow=classic;html=1;rounded=0;labelBackgroundColor=none;fontColor=default;" edge="1" parent="1">
          <mxGeometry width="50" height="50" relative="1" as="geometry">
            <mxPoint x="440" y="280" as="sourcePoint" />
            <mxPoint x="550" y="220" as="targetPoint" />
          </mxGeometry>
        </mxCell>
        <mxCell id="hX1Yc7hWCkJh4GDTsUoK-39" value="好 0.1" style="edgeLabel;html=1;align=center;verticalAlign=middle;resizable=0;points=[];labelBackgroundColor=none;" vertex="1" connectable="0" parent="hX1Yc7hWCkJh4GDTsUoK-38">
          <mxGeometry x="-0.0777" y="2" relative="1" as="geometry">
            <mxPoint y="1" as="offset" />
          </mxGeometry>
        </mxCell>
        <mxCell id="hX1Yc7hWCkJh4GDTsUoK-40" value="" style="endArrow=classic;html=1;rounded=0;labelBackgroundColor=none;fontColor=default;" edge="1" parent="1">
          <mxGeometry width="50" height="50" relative="1" as="geometry">
            <mxPoint x="440" y="280" as="sourcePoint" />
            <mxPoint x="550" y="340" as="targetPoint" />
          </mxGeometry>
        </mxCell>
        <mxCell id="hX1Yc7hWCkJh4GDTsUoK-41" value="差 0.9" style="edgeLabel;html=1;align=center;verticalAlign=middle;resizable=0;points=[];labelBackgroundColor=none;" vertex="1" connectable="0" parent="hX1Yc7hWCkJh4GDTsUoK-40">
          <mxGeometry x="-0.0803" y="3" relative="1" as="geometry">
            <mxPoint as="offset" />
          </mxGeometry>
        </mxCell>
        <mxCell id="hX1Yc7hWCkJh4GDTsUoK-42" value="30*3" style="text;html=1;strokeColor=none;fillColor=none;align=center;verticalAlign=middle;whiteSpace=wrap;rounded=0;labelBackgroundColor=none;" vertex="1" parent="1">
          <mxGeometry x="370" y="260" width="60" height="30" as="geometry" />
        </mxCell>
        <mxCell id="hX1Yc7hWCkJh4GDTsUoK-43" value="120*5" style="text;html=1;strokeColor=none;fillColor=none;align=center;verticalAlign=middle;whiteSpace=wrap;rounded=0;labelBackgroundColor=none;" vertex="1" parent="1">
          <mxGeometry x="560" y="200" width="60" height="30" as="geometry" />
        </mxCell>
        <mxCell id="hX1Yc7hWCkJh4GDTsUoK-44" value="30*5" style="text;html=1;strokeColor=none;fillColor=none;align=center;verticalAlign=middle;whiteSpace=wrap;rounded=0;labelBackgroundColor=none;" vertex="1" parent="1">
          <mxGeometry x="560" y="320" width="60" height="30" as="geometry" />
        </mxCell>
        <mxCell id="hX1Yc7hWCkJh4GDTsUoK-10" value="" style="group;labelBackgroundColor=none;" vertex="1" connectable="0" parent="1">
          <mxGeometry x="200" y="560" width="60" height="80" as="geometry" />
        </mxCell>
        <mxCell id="hX1Yc7hWCkJh4GDTsUoK-11" value="3" style="ellipse;whiteSpace=wrap;html=1;aspect=fixed;labelBackgroundColor=none;" vertex="1" parent="hX1Yc7hWCkJh4GDTsUoK-10">
          <mxGeometry x="10" y="40" width="40" height="40" as="geometry" />
        </mxCell>
        <mxCell id="hX1Yc7hWCkJh4GDTsUoK-12" value="不扩&lt;br&gt;0" style="text;html=1;strokeColor=none;fillColor=none;align=center;verticalAlign=middle;whiteSpace=wrap;rounded=0;labelBackgroundColor=none;" vertex="1" parent="hX1Yc7hWCkJh4GDTsUoK-10">
          <mxGeometry width="60" height="30" as="geometry" />
        </mxCell>
      </root>
    </mxGraphModel>
  </diagram>
</mxfile>
